{
	"asset":{
		"generator":"Khronos glTF Blender I/O v4.5.49",
		"version":"2.0"
	},
	"scene":0,
	"scenes":[
		{
			"name":"Scene",
			"nodes":[
				4
			]
		}
	],
	"nodes":[
		{
			"mesh":0,
			"name":"tent_Mat_0",
			"translation":[
				0,
				3.814697265625e-06,
				3.814697265625e-06
			]
		},
		{
			"children":[
				0
			],
			"name":"tent",
			"translation":[
				-5.820373058319092,
				-40.821311950683594,
				54.370704650878906
			]
		},
		{
			"children":[
				1
			],
			"name":"RootNode"
		},
		{
			"children":[
				2
			],
			"name":"tent_low_uvfix.fbx",
			"rotation":[
				0.70710688829422,
				0,
				0,
				0.7071066498756409
			]
		},
		{
			"children":[
				3
			],
			"name":"Sketchfab_model",
			"rotation":[
				-0.70710688829422,
				0,
				0,
				0.7071066498756409
			]
		}
	],
	"materials":[
		{
			"doubleSided":true,
			"name":"material",
			"normalTexture":{
				"index":0
			},
			"pbrMetallicRoughness":{
				"baseColorTexture":{
					"index":1
				},
				"metallicRoughnessTexture":{
					"index":2
				}
			}
		}
	],
	"meshes":[
		{
			"name":"tent_Mat_0",
			"primitives":[
				{
					"attributes":{
						"POSITION":0,
						"NORMAL":1,
						"TEXCOORD_0":2,
						"TANGENT":3
					},
					"indices":4,
					"material":0
				}
			]
		}
	],
	"textures":[
		{
			"sampler":0,
			"source":0
		},
		{
			"sampler":0,
			"source":1
		},
		{
			"sampler":0,
			"source":2
		}
	],
	"images":[
		{
			"mimeType":"image/png",
			"name":"Image_2",
			"uri":"Image_2.png"
		},
		{
			"mimeType":"image/png",
			"name":"Image_0",
			"uri":"Image_0.png"
		},
		{
			"mimeType":"image/png",
			"name":"Image_1",
			"uri":"Image_1.png"
		}
	],
	"accessors":[
		{
			"bufferView":0,
			"componentType":5126,
			"count":3125,
			"max":[
				100.97991180419922,
				135.5931396484375,
				60.07636642456055
			],
			"min":[
				-83.46479797363281,
				-43.31768035888672,
				-187.91856384277344
			],
			"type":"VEC3"
		},
		{
			"bufferView":1,
			"componentType":5126,
			"count":3125,
			"type":"VEC3"
		},
		{
			"bufferView":2,
			"componentType":5126,
			"count":3125,
			"type":"VEC2"
		},
		{
			"bufferView":3,
			"componentType":5126,
			"count":3125,
			"type":"VEC4"
		},
		{
			"bufferView":4,
			"componentType":5123,
			"count":15570,
			"type":"SCALAR"
		}
	],
	"bufferViews":[
		{
			"buffer":0,
			"byteLength":37500,
			"byteOffset":0,
			"target":34962
		},
		{
			"buffer":0,
			"byteLength":37500,
			"byteOffset":37500,
			"target":34962
		},
		{
			"buffer":0,
			"byteLength":25000,
			"byteOffset":75000,
			"target":34962
		},
		{
			"buffer":0,
			"byteLength":50000,
			"byteOffset":100000,
			"target":34962
		},
		{
			"buffer":0,
			"byteLength":31140,
			"byteOffset":150000,
			"target":34963
		}
	],
	"samplers":[
		{
			"magFilter":9729,
			"minFilter":9987
		}
	],
	"buffers":[
		{
			"byteLength":181140,
			"uri":"Tent.bin"
		}
	]
}
